<svg id="SOCIAL_ICONS" data-name="SOCIAL ICONS" xmlns="http://www.w3.org/2000/svg" viewBox="0 0 26 26"><defs><style>.cls-1{fill:#fff;}</style></defs><g id="Facebook"><path d="M20.15,13a7.19,7.19,0,1,0-8.31,7.1V15H10V13h1.83V11.38a2.53,2.53,0,0,1,2.71-2.8,11,11,0,0,1,1.61.14v1.77h-.91a1,1,0,0,0-1.17,1.12V13h2L15.76,15H14.08v5A7.19,7.19,0,0,0,20.15,13Z"/><path class="cls-1" d="M15.76,15,16.08,13h-2V11.61a1,1,0,0,1,1.17-1.12h.91V8.72a11,11,0,0,0-1.61-.14,2.53,2.53,0,0,0-2.71,2.8V13H10V15h1.83v5a7,7,0,0,0,2.24,0V15Z"/></g></svg>