<svg id="SOCIAL_ICONS" data-name="SOCIAL ICONS" xmlns="http://www.w3.org/2000/svg" viewBox="0 0 26 26"><defs><style>.cls-1{fill:#262626;}</style></defs><path id="Instagram" class="cls-1" d="M13,7c1.93,0,2.16,0,2.92,0a3.83,3.83,0,0,1,1.34.24A2.46,2.46,0,0,1,18.6,8.7,3.83,3.83,0,0,1,18.84,10c0,.76.05,1,.05,2.92s0,2.16-.05,2.92a3.83,3.83,0,0,1-.24,1.34,2.46,2.46,0,0,1-1.38,1.38,3.83,3.83,0,0,1-1.34.24c-.76,0-1,.05-2.92.05s-2.16,0-2.92-.05A3.83,3.83,0,0,1,8.7,18.6a2.46,2.46,0,0,1-1.38-1.38,3.83,3.83,0,0,1-.24-1.34c0-.76,0-1,0-2.92s0-2.16,0-2.92A3.83,3.83,0,0,1,7.32,8.7,2.46,2.46,0,0,1,8.7,7.32,3.83,3.83,0,0,1,10,7.08C10.8,7,11,7,13,7m0-1.3c-2,0-2.21,0-3,0a5.61,5.61,0,0,0-1.76.34A3.71,3.71,0,0,0,6.11,8.22,5.61,5.61,0,0,0,5.77,10c0,.77,0,1,0,3s0,2.21,0,3a5.61,5.61,0,0,0,.34,1.76,3.71,3.71,0,0,0,2.11,2.11,5.61,5.61,0,0,0,1.76.34c.77,0,1,0,3,0s2.21,0,3,0a5.61,5.61,0,0,0,1.76-.34,3.71,3.71,0,0,0,2.11-2.11,5.61,5.61,0,0,0,.34-1.76c0-.77,0-1,0-3s0-2.21,0-3a5.61,5.61,0,0,0-.34-1.76A3.71,3.71,0,0,0,17.7,6.11a5.61,5.61,0,0,0-1.76-.34C15.17,5.74,14.92,5.73,13,5.73Zm0,3.52A3.71,3.71,0,1,0,16.67,13,3.71,3.71,0,0,0,13,9.25Zm0,6.12A2.41,2.41,0,1,1,15.37,13,2.41,2.41,0,0,1,13,15.37Zm3.86-7.14a.87.87,0,1,0,.87.87.87.87,0,0,0-.87-.87Z"/></svg>