<svg id="SOCIAL_ICONS" data-name="SOCIAL ICONS" xmlns="http://www.w3.org/2000/svg" viewBox="0 0 26 26"><defs><style>.cls-1{fill:#262626;}</style></defs><path id="LinkedIn" class="cls-1" d="M19.12,5.73H6.8a1.05,1.05,0,0,0-1.07,1V19.15a1.05,1.05,0,0,0,1.07,1H19.12a1.06,1.06,0,0,0,1.07-1V6.77A1.06,1.06,0,0,0,19.12,5.73ZM10,18.05H7.87v-6.9H10ZM9,10.21A1.25,1.25,0,1,1,10.19,9h0A1.25,1.25,0,0,1,9,10.21Zm9.1,7.84H15.91V14.7c0-.8,0-1.83-1.12-1.83s-1.28.87-1.28,1.77v3.41H11.36v-6.9h2.06v.94h0a2.27,2.27,0,0,1,2-1.11c2.17,0,2.57,1.43,2.57,3.29Z"/></svg>