<svg id="SOCIAL_ICONS" data-name="SOCIAL ICONS" xmlns="http://www.w3.org/2000/svg" viewBox="0 0 26 26"><defs><style>.cls-1{fill:#262626;}</style></defs><path id="Pinterest" class="cls-1" d="M20.15,13a7.2,7.2,0,0,1-9.32,6.87,8.2,8.2,0,0,0,.9-1.89c.08-.33.45-1.71.45-1.71a1.92,1.92,0,0,0,1.64.83c2.17,0,3.73-2,3.73-4.47a4.22,4.22,0,0,0-4.43-4.15c-3.1,0-4.75,2.08-4.75,4.35a3.22,3.22,0,0,0,1.46,2.78c.14.07.21,0,.24-.09s.15-.59.2-.82a.23.23,0,0,0,0-.21,2.81,2.81,0,0,1-.53-1.64,3.11,3.11,0,0,1,3.1-3.12h.14a2.83,2.83,0,0,1,3,2.66,2.26,2.26,0,0,1,0,.26c0,1.94-1,3.29-2.26,3.29a1,1,0,0,1-1.09-1,.82.82,0,0,1,0-.31,14.17,14.17,0,0,0,.6-2.39.91.91,0,0,0-.79-1H12.3c-.73,0-1.3.74-1.3,1.74A2.47,2.47,0,0,0,11.21,14l-.84,3.57a7.11,7.11,0,0,0,0,2.06A7.18,7.18,0,1,1,20.15,13Z"/></svg>