<svg id="SOCIAL_ICONS" data-name="SOCIAL ICONS" xmlns="http://www.w3.org/2000/svg" viewBox="0 0 26 26"><defs><style>.cls-1{fill:#262626;}</style></defs><path id="Twitter" class="cls-1" d="M18.63,10.05c0,.13,0,.26,0,.38a8.33,8.33,0,0,1-12.81,7,5.32,5.32,0,0,0,.69,0,5.92,5.92,0,0,0,3.64-1.25,2.93,2.93,0,0,1-2.73-2,2.77,2.77,0,0,0,1.31,0A2.93,2.93,0,0,1,6.4,11.28v0a2.91,2.91,0,0,0,1.32.37A3,3,0,0,1,6.81,7.7a8.32,8.32,0,0,0,6,3.06,3.83,3.83,0,0,1-.08-.67,2.94,2.94,0,0,1,5.07-2,5.75,5.75,0,0,0,1.86-.7A3,3,0,0,1,18.41,9a6.07,6.07,0,0,0,1.68-.46A5.82,5.82,0,0,1,18.63,10.05Z"/></svg>