<svg id="SOCIAL_ICONS" data-name="SOCIAL ICONS" xmlns="http://www.w3.org/2000/svg" viewBox="0 0 26 26"><defs><style>.cls-1{fill:#282828;}.cls-2{fill:#fff;}</style></defs><g id="YouTube"><path class="cls-1" d="M19.86,9.48a1.83,1.83,0,0,0-1.28-1.29A43.06,43.06,0,0,0,13,7.89a43.27,43.27,0,0,0-5.63.3A1.8,1.8,0,0,0,6.06,9.48,18.9,18.9,0,0,0,5.76,13a18.9,18.9,0,0,0,.3,3.48,1.83,1.83,0,0,0,1.28,1.29A43.06,43.06,0,0,0,13,18a43.27,43.27,0,0,0,5.63-.3,1.8,1.8,0,0,0,1.27-1.29,18.9,18.9,0,0,0,.3-3.48A18.9,18.9,0,0,0,19.86,9.48Z"/><polygon class="cls-2" points="11.49 15.1 15.25 12.96 11.49 10.82 11.49 15.1"/></g></svg>